<?xml version="1.0" standalone="no"?>
<!DOCTYPE svg PUBLIC "-//W3C//DTD SVG 20010904//EN"
 "http://www.w3.org/TR/2001/REC-SVG-20010904/DTD/svg10.dtd">
<svg version="1.0" xmlns="http://www.w3.org/2000/svg"
 width="500.000000pt" height="500.000000pt" viewBox="0 0 500.000000 500.000000"
 preserveAspectRatio="xMidYMid meet">
<metadata>
Created by potrace 1.11, written by Peter Selinger 2001-2013
</metadata>
<g transform="translate(0.000000,500.000000) scale(0.100000,-0.100000)"
fill="#000000" stroke="none">
<path d="M2110 4903 c-25 -8 -62 -27 -82 -42 -23 -16 -186 -223 -425 -539
-380 -504 -388 -513 -418 -508 -16 3 -145 8 -285 11 -244 7 -257 6 -311 -14
-104 -40 -121 -65 -362 -541 l-219 -432 4 -81 c2 -59 9 -93 24 -122 12 -22
180 -267 374 -545 194 -278 353 -509 353 -515 0 -5 -42 -125 -94 -265 -84
-228 -94 -262 -93 -320 1 -119 7 -127 391 -512 386 -387 392 -391 513 -390 55
0 157 28 669 185 l605 185 209 -164 c115 -91 228 -174 251 -186 51 -26 155
-34 212 -16 23 7 223 105 445 218 447 227 478 248 517 351 19 51 21 90 31 604
6 303 11 592 11 642 l0 92 238 160 c198 133 242 167 269 208 35 53 53 109 53
164 0 61 -139 921 -157 968 -19 53 -83 126 -133 151 -19 10 -298 108 -620 219
-322 111 -588 205 -592 209 -4 4 -39 122 -78 262 -40 140 -83 274 -96 297 -32
55 -96 109 -153 127 -55 19 -915 156 -969 156 -20 -1 -57 -8 -82 -17z m603
-322 c202 -32 370 -61 373 -64 6 -6 134 -452 134 -466 0 -6 -70 15 -156 45
-85 30 -157 54 -160 54 -3 0 64 -137 150 -305 86 -168 153 -305 148 -304 -4 0
-194 236 -422 525 -472 597 -454 574 -443 574 4 0 174 -27 376 -59z m106 -789
c360 -455 656 -832 658 -838 4 -13 -877 -459 -886 -448 -5 5 -47 261 -95 568
-48 308 -89 562 -92 565 -2 3 -250 -32 -550 -78 -300 -46 -548 -81 -550 -78
-6 6 845 1137 855 1136 3 0 300 -372 660 -827z m1057 -124 l673 -232 -17 -27
c-153 -237 -1169 -1758 -1173 -1756 -3 1 -165 163 -358 359 l-353 357 521 261
521 260 -250 500 c-137 275 -250 502 -250 505 0 3 3 5 7 5 3 0 309 -104 679
-232z m-2829 -114 l112 -6 -99 -131 c-60 -79 -94 -133 -86 -135 7 -2 147 18
311 43 164 25 300 44 301 42 2 -2 -276 -108 -618 -235 -342 -127 -624 -230
-626 -228 -2 2 72 153 165 335 l168 331 130 -5 c72 -3 180 -8 242 -11z m1243
-106 c0 -7 34 -227 74 -488 41 -261 73 -476 71 -478 -1 -2 -258 38 -569 89
-312 50 -570 89 -572 86 -3 -3 -46 -250 -95 -548 -49 -299 -91 -544 -93 -546
-4 -4 -801 1139 -801 1149 0 8 1945 742 1978 747 4 0 7 -5 7 -11z m2390 -568
c32 -201 57 -365 57 -366 -1 0 -93 -62 -204 -137 -111 -75 -205 -137 -209
-137 -3 0 -4 76 -2 170 l3 170 -247 -247 c-137 -137 -248 -243 -248 -238 0 5
177 275 393 599 260 391 393 582 396 570 2 -11 30 -183 61 -384z m-2735 -476
c258 -41 470 -76 471 -77 1 -1 -117 -234 -262 -517 -145 -282 -261 -517 -256
-521 4 -4 227 -121 495 -260 303 -156 484 -255 475 -259 -22 -12 -1339 -412
-1343 -408 -2 2 -22 440 -44 973 -22 534 -43 1012 -46 1063 l-6 93 23 -6 c13
-3 234 -39 493 -81z m1020 -554 l409 -409 400 397 c220 218 401 392 403 387 4
-15 -23 -1424 -28 -1428 -7 -7 -2050 568 -2052 577 -2 10 446 885 453 886 3 0
189 -184 415 -410z m-1625 -716 c16 -373 28 -680 26 -681 -1 -1 -122 118 -269
265 l-268 268 83 227 c46 125 85 227 88 227 3 -1 48 -62 99 -137 84 -121 96
-134 101 -112 4 13 29 160 55 326 27 166 51 301 52 299 2 -2 17 -309 33 -682z
m2022 -266 c362 -101 658 -185 658 -188 -1 -12 -681 -350 -693 -344 -52 32
-377 298 -370 304 4 4 74 27 155 51 82 24 148 46 148 49 0 3 -112 62 -248 132
-286 147 -367 192 -332 184 14 -3 321 -88 682 -188z"/>
</g>
</svg>
