<svg xmlns="http://www.w3.org/2000/svg" viewBox="867 132 185.259 66.538">
  <defs>
    <style>
      .cls-1 {
        fill: #4c4c4c;
      }

      .cls-2 {
        fill: #556270;
      }

      .cls-3 {
        fill: #ff6b6b;
      }

      .cls-4 {
        fill: #c7f464;
      }

      .cls-5 {
        fill: #c44d58;
      }

      .cls-6 {
        fill: #4ecdc4;
      }
    </style>
  </defs>
  <g id="Group_4" data-name="Group 4" transform="translate(866.959 132.038)">
    <g id="Group_1" data-name="Group 1">
      <path id="Path_1" data-name="Path 1" class="cls-1" d="M84.7,36.9V59.3H78.1V36.9H75.3V30.7h2.8V20.3h6.6V30.8h5.1V37H84.7Z"/>
      <path id="Path_2" data-name="Path 2" class="cls-1" d="M115.9,30.8h6.6V59.3h-6.6v-3a12.711,12.711,0,0,1-18.6-.5,15.6,15.6,0,0,1-3.8-10.9,15.732,15.732,0,0,1,3.8-10.7,12.345,12.345,0,0,1,9.6-4.3,12.159,12.159,0,0,1,8.9,4.1V30.8ZM100.3,44.9a9.845,9.845,0,0,0,2.2,6.7,7.316,7.316,0,0,0,5.7,2.6,7.5,7.5,0,0,0,5.9-2.5,9.636,9.636,0,0,0,2.3-6.6,9.636,9.636,0,0,0-2.3-6.6,7.5,7.5,0,0,0-5.9-2.5,7.316,7.316,0,0,0-5.7,2.6A8.974,8.974,0,0,0,100.3,44.9Z"/>
      <path id="Path_3" data-name="Path 3" class="cls-1" d="M137.4,9.8V40l9.3-9.2h8.8l-12.4,12,13.3,16.6h-8.6l-9.4-12-1.1,1.1v11h-6.6V9.8Z"/>
      <path id="Path_4" data-name="Path 4" class="cls-1" d="M167.5,30.8V47.2c0,4.7,1.9,7.1,5.6,7.1s5.6-2.4,5.6-7.1V30.8h6.6V47.3a20.032,20.032,0,0,1-.8,5.9,9.749,9.749,0,0,1-2.8,4,12.689,12.689,0,0,1-8.5,2.9,12.874,12.874,0,0,1-8.5-2.9,10.02,10.02,0,0,1-2.9-4,17.348,17.348,0,0,1-.8-5.9V30.8Z"/>
    </g>
    <g id="Group_3" data-name="Group 3">
      <g id="Group_2" data-name="Group 2">
        <path id="Path_5" data-name="Path 5" class="cls-1" d="M68.4,32.1,66.6,20.4a4.118,4.118,0,0,0-2.8-3.3l-16-5.5L45.9,4.9a4.214,4.214,0,0,0-3.3-3L30.8,0a4.348,4.348,0,0,0-4,1.6L16.7,15.2l-7-.3a4.162,4.162,0,0,0-3.9,2.3L.5,27.7A4.164,4.164,0,0,0,.8,32l9.7,13.9L8,52.4a4.066,4.066,0,0,0,1,4.4l8.4,8.4a4,4,0,0,0,2.9,1.2,5.019,5.019,0,0,0,1.2-.2l16.2-4.9,5.5,4.3a3.916,3.916,0,0,0,2.6.9,4.136,4.136,0,0,0,1.9-.5l10.5-5.4A4.272,4.272,0,0,0,60.5,57l.3-16.9,5.8-3.9A4.349,4.349,0,0,0,68.4,32.1Z"/>
        <path id="Path_6" data-name="Path 6" class="cls-2" d="M9.2,18.5l6.7.3-2.8,3.8h0l9.4-1.5-18,6.8Z"/>
        <path id="Path_7" data-name="Path 7" class="cls-3" d="M42.3,5.5,44.1,12l-4.5-1.5L43.9,19,31.9,3.9Z"/>
        <path id="Path_8" data-name="Path 8" class="cls-4" d="M43.7,14l7,13.9L36.4,35.1l9.7,9.7L62.2,20.4Z"/>
        <path id="Path_9" data-name="Path 9" class="cls-3" d="M29.5,4.1,17.7,19.8,33,17.5l2.5,15.8,1-.6,11.2-5.6Z"/>
        <path id="Path_10" data-name="Path 10" class="cls-5" d="M11.3,54l2.4-6.3,2.7,3.9v0l1.5-9.4v.5l.8,18.7Z"/>
        <path id="Path_11" data-name="Path 11" class="cls-2" d="M33.5,33.6,31.3,20,3.9,30.2,15.2,46.3,17.7,31Z"/>
        <path id="Path_12" data-name="Path 12" class="cls-5" d="M25.8,49.8l7.3-14.2L19.6,33.4l1.2,29.2,18.8-5.7Z"/>
        <path id="Path_13" data-name="Path 13" class="cls-6" d="M45.7,62.9l-5.3-4.1L45,57.4,36.5,53l18.6,5.2Z"/>
        <path id="Path_14" data-name="Path 14" class="cls-6" d="M46.2,47.9,34.9,36.5,28.7,48.7l28.2,7.9L57.2,37Z"/>
        <path id="Path_15" data-name="Path 15" class="cls-4" d="M59.3,32h0l-6.8,6.7L63.2,22.6,64.9,33l-5.6,3.7.1-4.7Z"/>
      </g>
    </g>
  </g>
</svg>
